<?xml version="1.0" standalone="no"?>
<!DOCTYPE svg PUBLIC "-//W3C//DTD SVG 1.1//EN" "http://www.w3.org/Graphics/SVG/1.1/DTD/svg11.dtd" >
<svg xmlns="http://www.w3.org/2000/svg" xmlns:xlink="http://www.w3.org/1999/xlink" version="1.1" viewBox="-10 0 274 256">
   <path fill="currentColor"
d="M72 19q5 9 2 11q-21 35 -31 67q-1 3 0 4q0 1 3 -1q2 -2 21 -12q5 -6 8 -10q13 -16 14 -20q0 -3 8 1q3 1 3 2t-3 3q-29 23 -43 63q-1 3 0 3q1 1 3 -1q7 -5 15 -13q4 -2 2 1q-13 15 -20 22q-5 4 -6 -1q-3 -6 15 -40q-1 1 -2 1q-12 7 -19 14q-5 1 -6 -4q8 -32 28 -72
q5 -9 6 -17q0 -5 2 -1zM37 178q0 -1 1 0h1q-1 3 1 6q1 3 2 8q0 1 1 2q-1 4 -2 2q-11 -9 -4 -18zM60 167q-2 -2 1 -1q4 4 9 8q1 4 -1 4q-2 2 -4 -2q-4 -4 -5 -9zM98 166q-6 1 -8 -4q-6 -6 -14 -15q-4 -3 1 -1q10 5 23 16q1 2 0 4q-1 1 -2 0zM147 11q4 -6 12 -3q1 1 -1 1
q-6 2 -17 20q7 -5 11 -5q7 0 15 11q1 3 5 9q4 8 7 12q11 22 20 32q7 18 32 16q14 1 22 5q1 2 -1 2h-24q-18 5 -30 -18q-10 -13 -17 -24q-2 -3 -3 -6q-2 -2 -5 -6q-9 -14 -13 -22q-7 -11 -14 -6q-1 1 -3 1q-2 1 -4 1q-11 16 -22 35q-17 28 -27 42q-2 2 -1 -1q31 -58 58 -96z
M161 77h4q1 1 2 1q1 1 3 1q5 0 6 1q1 0 1 2l-1 1q-1 2 -2 1q-13 2 -20 6q-6 3 -4 0q1 -1 0 -1h-3q-7 2 -14 3q-9 3 -14 4t-9 0q-2 0 1 -2q26 -6 46 -14q0 -1 2 -2q1 0 2 -1zM148 110q1 2 3 2l3 2q41 -8 48 8q4 4 9 11q2 3 1 6q-3 5 -6 13q-11 31 -36 44q-3 2 -5 0t-6 -4
q-2 -1 -4 -3q-2 -1 -3 -3q-1 4 -1 10q-2 16 2 19v1q1 1 1 3q-2 1 -3 -1q-3 -2 -6 -7l-1 -2q-2 -3 0 -4q0 -1 1 -1q3 -1 3 -5q-1 -2 0 -8q1 -5 1 -7q-2 -1 -4 -3t4 -1v-9v-26q-4 1 -10 3q-4 1 -5 1q-1 17 1 27q1 5 -1 4q-2 2 -4 -2l-1 -2q-2 -6 -2 -11q-1 -1 1 -4v-9
q-2 1 -4 1q-3 1 -4 1q-2 1 -6 2h-4q2 12 9 18q2 5 1 6q-2 3 -3 2q-10 -7 -14 -15q-2 -1 0 -5l1 -1l-1 -3q-1 -4 0 -6q-3 -13 0 -21q1 -2 2 0h1q20 -9 43 -16q-1 0 -1 -1q-1 -2 -1 -3h-1q0 -1 2 -1zM128 148q0 -6 -1 -9q-1 -1 1 -1q7 4 6 8q6 -1 16 -5q0 -14 -1 -22l-15 6
q-8 2 -11 3q-5 3 -13 5h-4q-4 5 3 22q6 -3 19 -7zM152 182q17 13 28 3q18 -17 21 -50q-1 -18 -14 -20q-12 -1 -31 3q1 3 0 3q-2 2 -2 4v15q1 0 3 -1q2 0 4 -1q-1 -2 3 -3h2q3 2 12 1q2 0 2 2q0 1 -1 1q-1 1 0 1q-2 0 -7 1q-3 1 -5 1q-4 0 -10 2h-3q-1 3 -1 9q-2 23 -1 29z
M76 115q-2 -3 2 -2q7 3 11 4q3 2 0 4q-9 0 -11 4l-8 8q-4 1 -1 -1q8 -13 7 -17z" />
</svg>
