<?xml version="1.0" encoding="UTF-8" standalone="no"?>
<svg
   xmlns:dc="http://purl.org/dc/elements/1.1/"
   xmlns:cc="http://creativecommons.org/ns#"
   xmlns:rdf="http://www.w3.org/1999/02/22-rdf-syntax-ns#"
   xmlns:svg="http://www.w3.org/2000/svg"
   xmlns="http://www.w3.org/2000/svg"
   xmlns:sodipodi="http://sodipodi.sourceforge.net/DTD/sodipodi-0.dtd"
   xmlns:inkscape="http://www.inkscape.org/namespaces/inkscape"
   version="1.1"
   viewBox="-10 0 266 256"
   id="svg82"
   sodipodi:docname="uni58EB_lu.svg"
   inkscape:version="1.0.2-2 (e86c870879, 2021-01-15)">
  <metadata
     id="metadata88">
    <rdf:RDF>
      <cc:Work
         rdf:about="">
        <dc:format>image/svg+xml</dc:format>
        <dc:type
           rdf:resource="http://purl.org/dc/dcmitype/StillImage" />
        <dc:title></dc:title>
      </cc:Work>
    </rdf:RDF>
  </metadata>
  <defs
     id="defs86" />
  <sodipodi:namedview
     pagecolor="#ffffff"
     bordercolor="#666666"
     borderopacity="1"
     objecttolerance="10"
     gridtolerance="10"
     guidetolerance="10"
     inkscape:pageopacity="0"
     inkscape:pageshadow="2"
     inkscape:window-width="1208"
     inkscape:window-height="745"
     id="namedview84"
     showgrid="false"
     inkscape:zoom="2.0301699"
     inkscape:cx="105.09024"
     inkscape:cy="93.041266"
     inkscape:window-x="2236"
     inkscape:window-y="162"
     inkscape:window-maximized="0"
     inkscape:current-layer="svg82" />
  <path
     fill="currentColor"
     d="M115 45q11 5 19 9q3 3 2 12q-2 15 -3 30v10q31 -6 52 -9q0 -6 5 -6q4 -1 8 0q8 5 19 9q5 3 8 5q2 2 0 5q-1 4 -5 4q-11 -1 -23 -8q-5 -2 -10 -2h-13q-14 2 -41 7q-1 5 -1 10q-2 20 -3 28t1 12q11 -1 24 -1q0 -4 5 -5q7 -3 10 0q5 6 15 9q6 3 12 8q1 1 0 5q-2 4 -4 3h-3 q-4 -1 -10 -4q-10 -8 -28 -8q-36 1 -60 16q-6 3 -9 0q-1 -1 0 -2q2 -4 2 -8l2 -1q1 -1 5 -4q2 -1 4 0h4q9 -1 19 -6q5 -12 5 -50q-7 2 -23 6q-34 8 -58 14q-13 6 -24 -5q-1 -2 1 -1q7 6 34 -2q44 -11 70 -17q0 -9 -2 -33q-1 -23 -7 -28q-3 -2 1 -2z"
     id="path80"
     style="fill:none;stroke:#f0b400;stroke-opacity:1" />
  <path
     style="fill:none;stroke:#000000;stroke-width:1px;stroke-linecap:butt;stroke-linejoin:miter;stroke-opacity:1"
     d="m 15.121051,123.63498 c 0,0 9.571202,9.35262 18.225076,9.35882 C 42,133 123.97894,107.87275 145.652,105.90247 c 21.67306,-1.97028 56.15294,-6.895976 56.15294,-6.895976 L 184.565,90.140241 230.37398,114.27615"
     id="path917" />
  <path
     style="fill:none;stroke:#000000;stroke-width:1px;stroke-linecap:butt;stroke-linejoin:miter;stroke-opacity:1"
     d="m 107.91478,40.046413 25.12105,23.643342 c 0,0 -5.91083,-12.80681 -5.91083,-5.910836 0,6.895975 2.95541,41.868418 1.97027,53.690091 -0.98514,11.82167 -4.43312,55.66037 -4.43312,55.66037 l -1.47771,10.83653"
     id="path915" />
  <path
     style="fill:none;stroke:#000000;stroke-width:1px;stroke-linecap:butt;stroke-linejoin:miter;stroke-opacity:1"
     d="m 95,169 -13,13 0.110519,5.66903 c 0,0 6.921659,-14.69197 39.405571,-21.1805 C 154,160 173.72847,163.04054 173.72847,163.04054 c 0,0 -13.79195,-10.83653 -20.68793,-12.31424 -6.89597,-1.4777 49.25697,27.5839 46.79412,31.52446"
     id="path939" />
</svg>
