<?xml version="1.0" encoding="UTF-8" standalone="no"?>
<svg
   xmlns:dc="http://purl.org/dc/elements/1.1/"
   xmlns:cc="http://creativecommons.org/ns#"
   xmlns:rdf="http://www.w3.org/1999/02/22-rdf-syntax-ns#"
   xmlns:svg="http://www.w3.org/2000/svg"
   xmlns="http://www.w3.org/2000/svg"
   xmlns:sodipodi="http://sodipodi.sourceforge.net/DTD/sodipodi-0.dtd"
   xmlns:inkscape="http://www.inkscape.org/namespaces/inkscape"
   version="1.1"
   viewBox="-10 0 274 256"
   id="svg968"
   sodipodi:docname="uni7DB8_lun.svg"
   inkscape:version="1.0.2-2 (e86c870879, 2021-01-15)">
  <metadata
     id="metadata974">
    <rdf:RDF>
      <cc:Work
         rdf:about="">
        <dc:format>image/svg+xml</dc:format>
        <dc:type
           rdf:resource="http://purl.org/dc/dcmitype/StillImage" />
        <dc:title></dc:title>
      </cc:Work>
    </rdf:RDF>
  </metadata>
  <defs
     id="defs972" />
  <sodipodi:namedview
     pagecolor="#ffffff"
     bordercolor="#666666"
     borderopacity="1"
     objecttolerance="10"
     gridtolerance="10"
     guidetolerance="10"
     inkscape:pageopacity="0"
     inkscape:pageshadow="2"
     inkscape:window-width="1680"
     inkscape:window-height="987"
     id="namedview970"
     showgrid="false"
     inkscape:snap-grids="false"
     inkscape:snap-to-guides="false"
     inkscape:snap-others="false"
     inkscape:object-nodes="false"
     inkscape:zoom="2.8284271"
     inkscape:cx="61.919787"
     inkscape:cy="127.38556"
     inkscape:window-x="1912"
     inkscape:window-y="22"
     inkscape:window-maximized="1"
     inkscape:current-layer="svg968" />
  <path
     fill="currentColor"
     d="m 72.003928,18.61138 q 5.000056,9.037814 2.000022,11.046216 -21.000239,35.147053 -31.000353,67.281501 -1.000012,3.012605 0,4.016803 0,1.00421 3.000034,-1.004198 2.000023,-2.008403 21.00024,-12.050417 5.000057,-6.02521 8.00009,-10.042017 13.000145,-16.067224 14.000157,-20.084028 0,-3.012605 8.000092,1.004201 3.00003,1.0042 3.00003,2.008402 0,1.004201 -3.00003,3.012604 -29.000328,23.096636 -43.000487,63.264693 -1.000012,3.01261 0,3.01261 1.000011,1.0042 3.000033,-1.0042 7.00008,-5.02101 15.000172,-13.05462 4.000045,-2.00841 2.000022,1.0042 -13.000148,15.06302 -20.000227,22.09243 -5.000057,4.01681 -6.000069,-1.0042 -3.000034,-6.02521 15.000171,-40.168061 -1.000012,1.004202 -2.000023,1.004202 -12.000136,7.029409 -19.000217,14.058819 -5.000056,1.0042 -6.000067,-4.0168 8.00009,-32.134453 28.000318,-72.302513 5.000058,-9.037813 6.000069,-17.071425 0,-5.021008 2.000023,-1.004202 z M 37.003529,178.27942 q 0,-1.0042 1.000012,0 h 1.000011 q -1.000011,3.0126 1.000012,6.02521 1.00001,3.0126 2.000021,8.03361 0,1.0042 1.000012,2.0084 -1.000012,4.01681 -2.000023,2.00841 -11.000125,-9.03782 -4.000045,-18.07563 z M 60.00379,167.2332 q -2.000022,-2.0084 1.000012,-1.0042 4.000046,4.01681 9.000103,8.03361 1.000012,4.01681 -1.000011,4.01681 -2.000023,2.0084 -4.000046,-2.0084 -4.000046,-4.01681 -5.000058,-9.03782 z m 38.000431,-1.0042 q -6.000069,1.0042 -8.000092,-4.0168 -6.000064,-6.02521 -14.000156,-15.06303 -4.000045,-3.0126 1.000011,-1.0042 10.000111,5.02101 23.000256,16.06723 1.00002,2.0084 0,4.0168 -1.000007,1.0042 -2.000019,0 z M 147.00478,10.577768 q 4.00005,-6.0252088 12.00014,-3.0126043 1.00001,1.0042015 -1.00001,1.0042015 -6.00007,2.0084028 -17.0002,20.0840308 7.00009,-5.021008 11.00013,-5.021008 7.00008,0 15.00017,11.046216 1.00001,3.012605 5.00006,9.037815 4.00005,8.033611 7.00008,12.050417 11.00013,22.092432 20.00023,32.134449 7.00008,18.075625 32.00035,16.067225 14.00017,1.0042 22.00026,5.02101 1.00001,2.0084 -1.00001,2.0084 H 228.0057 q -18.00019,5.02101 -30.00033,-18.075629 -10.00012,-13.054619 -17.0002,-24.100835 -2.00002,-3.012605 -3.00003,-6.02521 -2.00002,-2.008403 -5.00006,-6.025208 -9.0001,-14.058821 -13.00015,-22.092434 -7.00008,-11.046216 -14.00016,-6.025208 -1.00001,1.0042 -3.00003,1.0042 -2.00003,1.004201 -4.00005,1.004201 -11.00012,16.067225 -22.00025,35.147054 -17.0002,28.117642 -27.000311,42.176459 -2.000023,2.00841 -1.000011,-1.0042 31.000352,-58.243685 58.000662,-96.403342 z m 14.00016,66.277299 h 4.00005 q 1.00001,1.004201 2.00002,1.004201 1.00001,1.004202 3.00004,1.004202 5.00006,0 6.00007,1.004202 1.00001,0 1.00001,2.008403 l -1.00001,1.004202 q -1.00001,2.008403 -2.00003,1.004201 -13.00015,2.008404 -20.00023,6.025208 -6.00006,3.012605 -4.00004,0 1.00001,-1.0042 0,-1.0042 h -3.00004 q -7.00008,2.008402 -14.00016,3.012603 -9.0001,3.012605 -14.00016,4.016807 -5.00006,1.004201 -9.0001,0 -2.00002,0 1.00001,-2.008403 26.0003,-6.025208 46.00053,-14.058821 0,-1.004202 2.00002,-2.008404 1.00001,0 2.00002,-1.004201 z M 148.0048,109.99372 q 1.00001,2.0084 3.00003,2.0084 l 3.00003,2.0084 q 41.00047,-8.03361 48.00056,8.03361 4.00004,4.01681 9.00009,11.04622 2.00002,3.01261 1.00001,6.02521 -3.00002,5.02101 -6.00006,13.05462 -11.00013,31.13025 -36.00041,44.18487 -3.00004,2.0084 -5.00006,0 -2.00002,-2.00841 -6.00007,-4.01681 -2.00002,-1.0042 -4.00004,-3.0126 -2.00003,-1.00421 -3.00004,-3.01261 -1.00001,4.01681 -1.00001,10.04202 -2.00002,16.06722 2.00002,19.07982 v 1.00421 q 1.00001,1.0042 1.00001,3.0126 -2.00002,1.00421 -3.00003,-1.0042 -3.00003,-2.0084 -6.00007,-7.02941 l -1.00001,-2.0084 q -2.00002,-3.01261 0,-4.01681 0,-1.0042 1.00001,-1.0042 3.00004,-1.0042 3.00004,-5.02101 -1.00002,-2.0084 0,-8.03361 1.00001,-5.02101 1.00001,-7.02941 -2.00003,-1.0042 -4.00005,-3.01261 -2.00002,-2.0084 4.00005,-1.0042 v -9.03781 -26.10924 q -4.00005,1.0042 -10.00012,3.0126 -4.00004,1.00421 -5.00006,1.00421 -1.00001,17.07142 1.00002,27.11344 1.00001,5.021 -1.00002,4.0168 -2.00002,2.0084 -4.00004,-2.0084 l -1.00001,-2.0084 q -2.00003,-6.02521 -2.00003,-11.04622 -1.00001,-1.0042 1.00002,-4.01681 v -9.03781 q -2.00003,1.0042 -4.00005,1.0042 -3.00003,1.0042 -4.00005,1.0042 -2.00002,1.0042 -6.00007,2.00841 h -4.00004 q 2.00002,12.05041 9.0001,18.07562 2.00003,5.02101 1.00001,6.02521 -2.00002,3.01261 -3.00003,2.0084 -10.00012,-7.0294 -14.00016,-15.06302 -2.00002,-1.0042 0,-5.021 l 1.00001,-1.00421 -1.00001,-3.0126 q -1.00001,-4.01681 0,-6.02521 -3.00004,-13.05462 0,-21.08823 1.00001,-2.0084 2.00002,0 h 1.00001 q 20.00023,-9.03782 43.0005,-16.06723 -1.00001,0 -1.00001,-1.0042 -1.00002,-2.0084 -1.00002,-3.0126 h -1.00001 q 0,-1.0042 2.00003,-1.0042 z m -20.00023,38.15965 q 0,-6.0252 -1.00002,-9.03781 -1.00001,-1.0042 1.00002,-1.0042 7.00008,4.01681 6.00006,8.03361 6.00007,-1.0042 16.00019,-5.02101 0,-14.05882 -1.00001,-22.09243 l -15.00018,6.02521 q -8.00009,2.0084 -11.00012,3.0126 -5.00006,3.01261 -13.00015,5.02101 h -4.00005 q -4.00004,5.02101 3.00004,22.09243 6.00007,-3.0126 19.00022,-7.02941 z m 24.00027,34.14285 q 17.0002,13.05462 28.00032,3.01261 18.00021,-17.07143 21.00024,-50.21008 -1.00001,-18.07562 -14.00016,-20.08403 -12.00013,-1.0042 -31.00035,3.01261 1.00001,3.0126 0,3.0126 -2.00003,2.00841 -2.00003,4.01681 v 15.06302 q 1.00002,0 3.00004,-1.0042 2.00002,0 4.00004,-1.0042 -1.00001,-2.0084 3.00004,-3.01261 h 2.00002 q 3.00004,2.00841 12.00014,1.00421 2.00002,0 2.00002,2.0084 0,1.0042 -1.00001,1.0042 -1.00001,1.0042 0,1.0042 -2.00002,0 -7.00008,1.0042 -3.00003,1.00421 -5.00006,1.00421 -4.00004,0 -10.00011,2.0084 h -3.00004 q -1.00001,3.0126 -1.00001,9.03781 -2.00002,23.09664 -1.00001,29.12184 z m -76.000867,-67.2815 q -2.000023,-3.0126 2.000023,-2.0084 7.000076,3.01261 11.000122,4.01681 3.000034,2.0084 0,4.0168 -9.000099,0 -11.000122,4.01681 l -8.000091,8.03361 q -4.000046,1.0042 -1.000011,-1.0042 8.00009,-13.05462 7.000079,-17.07143 z"
     id="path966"
     style="fill:none;stroke:#f0b400;stroke-width:1.0021;stroke-opacity:1" />
  <path
     style="fill:none;stroke:#000000;stroke-width:1px;stroke-linecap:butt;stroke-linejoin:miter;stroke-opacity:1"
     d="m 69.19596,11.667262 3.18198,16.970563 -0.353553,-4.949748 c -3.535534,9.899495 -38.183767,81.317283 -36.416,91.570333 2.828428,-4.24265 11.667262,-13.08148 11.313709,-12.72793 6.363961,-4.242637 22.98097,-12.374365 22.98097,-12.374365"
     id="path2108" />
  <path
     style="fill:none;stroke:#000000;stroke-width:1px;stroke-linecap:butt;stroke-linejoin:miter;stroke-opacity:1"
     d="m 95.35891,55.861436 c 0,0 -28.637824,35.708892 -30.759145,39.951533 -1.06066,4.949751 -17.324116,36.416001 -15.202795,43.487071 5.656854,-5.3033 25.809397,-24.74874 25.809397,-24.74874"
     id="path2110" />
  <path
     style="fill:none;stroke:#000000;stroke-width:1px;stroke-linecap:butt;stroke-linejoin:miter;stroke-opacity:1"
     d="M 74.145707,111.72287 91.82338,123.39013 82.277435,114.5513 67.074639,136.11806"
     id="path2112" />
  <path
     style="fill:none;stroke:#000000;stroke-width:1px;stroke-linecap:butt;stroke-linejoin:miter;stroke-opacity:1"
     d="m 38.436815,175.36248 c -2.828428,7.07107 1.06066,19.79899 4.596194,23.33453"
     id="path2114" />
  <path
     style="fill:none;stroke:#000000;stroke-width:1px;stroke-linecap:butt;stroke-linejoin:miter;stroke-opacity:1"
     d="m 57.175144,163.34167 14.495689,16.61701"
     id="path2116" />
  <path
     style="fill:none;stroke:#000000;stroke-width:1px;stroke-linecap:butt;stroke-linejoin:miter;stroke-opacity:1"
     d="m 72.37794,143.18912 28.28427,24.04163"
     id="path2122" />
  <path
     style="fill:none;stroke:#000000;stroke-width:1px;stroke-linecap:butt;stroke-linejoin:miter;stroke-opacity:1"
     d="m 160.76629,7.4246212 c 0,0 -8.13173,0.7071068 -10.6066,2.8284268 -2.47488,2.121321 -16.26346,21.213204 -62.932508,100.762712"
     id="path2124" />
  <path
     style="fill:none;stroke:#000000;stroke-width:1px;stroke-linecap:butt;stroke-linejoin:miter;stroke-opacity:1"
     d="m 138.49242,29.344931 c 0,0 10.25305,-5.656854 17.32412,-3.18198 7.07107,2.474874 34.29468,62.57895 56.21499,79.195959 6.01041,2.47487 32.17336,0.70711 43.84062,4.94975"
     id="path2126" />
  <path
     style="fill:none;stroke:#000000;stroke-width:1px;stroke-linecap:butt;stroke-linejoin:miter;stroke-opacity:1"
     d="M 105.96551,95.812969 Z"
     id="path2128" />
  <path
     style="fill:none;stroke:#000000;stroke-width:1px;stroke-linecap:butt;stroke-linejoin:miter;stroke-opacity:1"
     d="m 107.02617,95.105862 c 0,0 64.34672,-15.556349 69.65002,-13.435029 -13.08148,-0.707107 -15.2028,-2.12132 -15.2028,-2.12132 l -13.43502,13.788582"
     id="path2130" />
  <path
     style="fill:none;stroke:#000000;stroke-width:1px;stroke-linecap:butt;stroke-linejoin:miter;stroke-opacity:1"
     d="m 104.19775,127.63277 c -4.5962,23.68808 10.96015,54.09367 15.55634,57.62921"
     id="path2134" />
  <path
     style="fill:none;stroke:#000000;stroke-width:1px;stroke-linecap:butt;stroke-linejoin:miter;stroke-opacity:1"
     d="m 100.30866,131.52186 c 10.6066,1.41421 52.67945,-20.5061 78.48885,-18.73833 11.31371,1.41422 19.79899,-0.70711 28.28427,22.98097 -1.76777,13.78858 -20.85965,57.98276 -38.53732,57.98276 -11.31371,-5.65686 -25.8094,-15.2028 -25.8094,-15.2028"
     id="path2136" />
  <path
     style="fill:none;stroke:#000000;stroke-width:1px;stroke-linecap:butt;stroke-linejoin:miter;stroke-opacity:1"
     d="m 103.84419,157.33126 68.94291,-19.44544 -10.6066,-1.76776 22.62742,5.3033"
     id="path2138" />
  <path
     style="fill:none;stroke:#000000;stroke-width:1px;stroke-linecap:butt;stroke-linejoin:miter;stroke-opacity:1"
     d="m 127.53227,136.11806 c 0,0 3.53553,6.36396 3.88909,9.19238 0.35355,2.82843 0.7071,37.47666 0.7071,37.47666"
     id="path2140" />
  <path
     style="fill:none;stroke:#000000;stroke-width:1px;stroke-linecap:butt;stroke-linejoin:miter;stroke-opacity:1"
     d="m 146.2706,108.54089 7.42462,11.31371 -2.47487,-7.07107 c 0,0 -0.35356,92.27744 -2.47488,96.87363 -3.53553,-2.12132 -6.71751,-6.01041 -6.71751,-6.01041 l 13.43503,19.44544"
     id="path2142" />
</svg>
