<?xml version="1.0" encoding="UTF-8" standalone="no"?>
<svg
   xmlns:dc="http://purl.org/dc/elements/1.1/"
   xmlns:cc="http://creativecommons.org/ns#"
   xmlns:rdf="http://www.w3.org/1999/02/22-rdf-syntax-ns#"
   xmlns:svg="http://www.w3.org/2000/svg"
   xmlns="http://www.w3.org/2000/svg"
   xmlns:sodipodi="http://sodipodi.sourceforge.net/DTD/sodipodi-0.dtd"
   xmlns:inkscape="http://www.inkscape.org/namespaces/inkscape"
   version="1.1"
   viewBox="-10 0 266 256"
   id="svg2176"
   sodipodi:docname="uni984F_yen.svg"
   inkscape:version="1.0.2-2 (e86c870879, 2021-01-15)">
  <metadata
     id="metadata2182">
    <rdf:RDF>
      <cc:Work
         rdf:about="">
        <dc:format>image/svg+xml</dc:format>
        <dc:type
           rdf:resource="http://purl.org/dc/dcmitype/StillImage" />
        <dc:title></dc:title>
      </cc:Work>
    </rdf:RDF>
  </metadata>
  <defs
     id="defs2180" />
  <sodipodi:namedview
     pagecolor="#ffffff"
     bordercolor="#666666"
     borderopacity="1"
     objecttolerance="10"
     gridtolerance="10"
     guidetolerance="10"
     inkscape:pageopacity="0"
     inkscape:pageshadow="2"
     inkscape:window-width="1680"
     inkscape:window-height="987"
     id="namedview2178"
     showgrid="false"
     inkscape:zoom="2.8710938"
     inkscape:cx="133"
     inkscape:cy="100.13605"
     inkscape:window-x="1912"
     inkscape:window-y="22"
     inkscape:window-maximized="1"
     inkscape:current-layer="svg2176"
     inkscape:object-nodes="false" />
  <path
     fill="currentColor"
     d="M168 45q10 5 16 9q2 4 -2 5q-6 0 -9 7q-5 7 -10 20q3 0 0 9q-4 7 -3 17q15 -5 15 -8q1 -1 3 -2q3 -1 7 -2l4 -2q1 0 2 2q2 3 -3 5t-10 9q0 -1 -1 1q-3 4 -2 -1q1 -4 -5 -2q-3 2 -10 2q-2 33 4 39q3 -1 10 -4q5 -3 7 -4q3 -2 6 -2t6 1v2q-8 4 -15 17q-26 41 -53 48 q-3 -1 0 -2q31 -17 56 -58q-1 1 -4 2q-14 6 -20 9q-12 6 -21 9q-4 2 -5 -3q-1 -1 1 -1q0 1 4 0q2 0 3 -1q13 -5 20 -10q-2 -2 -8 -7q-3 -2 1 -5q3 -2 3 -7q-1 -12 2 -42q0 -6 -7 -9q-2 -2 1 -1h7q2 -6 4 -10q5 -14 7 -18t-2 -9q-2 -1 -2 -2q1 -1 3 -1zM203 71l2 4q2 1 3 2 q4 2 6 4q1 5 0 7q-5 2 -5 5q-2 15 -2 27q1 11 1 23q-1 9 1 14q2 14 -4 12q-3 2 -4 -3q-2 -3 -5 -6q-3 -1 -6 -5q-2 -1 0 -1q1 1 4 2h6q3 1 3 -4v-15v-17q-1 -1 -1 -5q-1 -15 -1 -33q0 -8 -3 -9t-11 3q-10 6 -15 4q-2 0 -2 -1t2 -2q4 -1 7 -3q20 -8 24 -3zM200 19q4 -2 20 5 q1 3 0 6q-4 2 -8 1q-8 0 -13 3q-10 4 -25 6q-5 0 -1 -2q8 -2 20 -8q2 -3 -5 -1q-22 8 -38 5q-5 -1 0 -2q33 -5 50 -13zM114 22q1 -3 6 -3l4 2q7 2 10 4q1 1 0 2q0 1 -2 1q-10 -1 -24 4q-4 2 -5 2q1 2 3 3q2 2 0 2l-1 1q-3 1 -3 3q-6 12 -12 20q16 8 22 12q3 -1 7 -2 q-1 -4 2 -5q0 -1 3 -1q4 5 10 6q2 1 1 4q0 3 -4 2q-7 -1 -17 1q-19 6 -34 14q-4 2 -5 2t2 -2t14 -8q1 0 1 -1q-15 4 -37 11q-6 4 -15 3q-4 0 1 -2q20 -7 63 -20q-8 -5 -16 -11q-13 14 -30 22q-5 1 0 -2q14 -6 26 -22q-10 -5 -26 -12q-6 -2 1 -1q14 4 27 10q9 -15 12 -22v-3 q-8 3 -16 10q-7 4 -2 -1q10 -9 3 -7q-3 2 -14 5l-6 2q-11 3 -19 -1q-4 -1 1 -1q11 1 55 -13q9 -2 14 -8zM70 102q1 0 1 1t-1 2q-3 2 -2 6t0 4q-6 0 -6 11q-13 60 -43 100q-3 3 -1 -1q35 -54 40 -101q1 -10 0 -10q-4 -2 12 -12zM186 172q15 12 32 27q2 3 4 3q8 4 8 12 q-2 4 -6 2q-5 -2 -9 -8q-16 -19 -30 -34q-2 -2 1 -2zM108 168q2 1 6 2h6q-2 6 -3 6q-4 1 -9 5q-1 1 -2 1q-23 21 -48 32q-3 0 0 -2q16 -9 36 -26q7 -5 8 -10q3 -9 6 -8zM102 129q1 1 4 2q7 2 10 3q1 2 0 4q-10 3 -14 7q-28 26 -40 32q-3 1 -1 -1q12 -11 24 -21q6 -5 11 -10 q8 -10 3 -13q-1 -3 3 -3zM69 6q19 4 29 15q1 4 -1 7t-5 0q-3 -2 -10 -5q-1 0 -1 -1q-4 -1 -2 -5q3 -1 -10 -10q-5 -2 0 -1zM101 97q0 1 1 1q3 1 4 2q2 2 0 3t-1 1q-8 5 -9 8q-16 20 -32 27q-4 2 -1 -1q18 -12 31 -32q1 -1 3 -6q1 -4 4 -3zM190 123q-2 6 -9 6q-3 1 -7 4l-1 1 q-2 3 -1 0v-1q-1 -1 -3 -1q-4 0 -2 -1q1 0 4 -2q2 -1 3 -2q5 -4 14 -7q1 1 2 3z"
     id="path2174"
     style="fill:none;stroke:#f0b400;stroke-opacity:1" />
  <path
     style="fill:none;stroke:#000000;stroke-width:1px;stroke-linecap:butt;stroke-linejoin:miter;stroke-opacity:1"
     d="m 64.884354,4.1795918 c 0,0 36.223126,19.1564622 35.526526,20.8979592 -0.69659,1.741497 -24.380948,-7.314286 -24.380948,-7.314286"
     id="path2745" />
  <path
     style="fill:none;stroke:#000000;stroke-width:1px;stroke-linecap:butt;stroke-linejoin:miter;stroke-opacity:1"
     d="m 39.458503,42.840816 14.976871,1.741497 c 0,0 65.828576,-20.897959 80.805446,-18.111565 -18.80817,-5.572789 -17.76327,-6.617687 -17.76327,-6.617687 -1.0449,3.134694 -6.61769,8.359184 -6.61769,8.359184 0,0 -19.50476,5.921088 -34.829928,20.54966"
     id="path2749" />
  <path
     style="fill:none;stroke:#000000;stroke-width:1px;stroke-linecap:butt;stroke-linejoin:miter;stroke-opacity:1"
     d="m 102.15238,33.436735 c 0,0 -10.79728,42.144217 -49.110203,55.727891"
     id="path2751" />
  <path
     style="fill:none;stroke:#000000;stroke-width:1px;stroke-linecap:butt;stroke-linejoin:miter;stroke-opacity:1"
     d="m 54.087075,50.155102 c 0,0 47.368705,18.111565 58.514285,27.167347"
     id="path2753" />
  <path
     style="fill:none;stroke:#000000;stroke-width:1px;stroke-linecap:butt;stroke-linejoin:miter;stroke-opacity:1"
     d="m 35.627211,98.917007 c 0,0 88.816329,-27.167347 102.399999,-22.291157 -14.97687,-5.572789 -17.41497,-10.448979 -17.41497,-10.448979 l 6.96599,4.87619 -56.076189,26.470749"
     id="path2755" />
  <path
     style="fill:none;stroke:#000000;stroke-width:1px;stroke-linecap:butt;stroke-linejoin:miter;stroke-opacity:1"
     d="m 69.760544,102.7483 -9.404081,13.58367 c 0,0 -10.100681,69.31157 -44.582313,114.24218"
     id="path2757" />
  <path
     style="fill:none;stroke:#000000;stroke-width:1px;stroke-linecap:butt;stroke-linejoin:miter;stroke-opacity:1"
     d="m 104.93878,96.478912 c 0,0 -19.504766,30.302038 -45.278916,44.582308"
     id="path2759" />
  <path
     style="fill:none;stroke:#000000;stroke-width:1px;stroke-linecap:butt;stroke-linejoin:miter;stroke-opacity:1"
     d="m 96.57959,128.17415 20.89796,10.10068 -8.01088,-8.35918 c -4.87619,10.79728 -24.380956,29.60544 -50.851704,48.7619"
     id="path2763" />
  <path
     style="fill:none;stroke:#000000;stroke-width:1px;stroke-linecap:butt;stroke-linejoin:miter;stroke-opacity:1"
     d="m 101.80408,170.66667 18.11157,4.17959 -6.61769,-5.92109 c -5.57279,8.01088 -43.189116,44.58231 -59.210885,45.97551"
     id="path2769" />
  <path
     style="fill:none;stroke:#000000;stroke-width:1px;stroke-linecap:butt;stroke-linejoin:miter;stroke-opacity:1"
     d="m 143.6,32.391837 c 21.94286,3.134694 62.69388,-10.797279 62.69388,-10.797279 l -9.05578,-1.044898 22.29115,11.842177 -3.13469,-9.404082 c 0,0 -35.17823,17.066667 -47.71701,17.066667"
     id="path2771" />
  <path
     style="fill:none;stroke:#000000;stroke-width:1px;stroke-linecap:butt;stroke-linejoin:miter;stroke-opacity:1"
     d="m 164.14966,44.234014 14.62857,13.931972 -1.3932,-9.752381 -18.80816,40.054422"
     id="path2773" />
  <path
     style="fill:none;stroke:#000000;stroke-width:1px;stroke-linecap:butt;stroke-linejoin:miter;stroke-opacity:1"
     d="m 146.38639,83.591837 16.37007,7.314285 -3.48299,-5.572789 -1.3932,64.087077 -9.75238,-5.22449 16.02177,12.53877"
     id="path2775" />
  <path
     style="fill:none;stroke:#000000;stroke-width:1px;stroke-linecap:butt;stroke-linejoin:miter;stroke-opacity:1"
     d="m 167.98095,79.760544 c 0,0 26.12245,-11.842177 32.74014,-8.707483 6.61769,3.134694 10.10068,14.628572 10.10068,14.628572 l -5.92109,-6.617687 -0.6966,91.254424 3.83129,-5.22449 -19.85306,-12.53878"
     id="path2777" />
  <path
     style="fill:none;stroke:#000000;stroke-width:1px;stroke-linecap:butt;stroke-linejoin:miter;stroke-opacity:1"
     d="m 155.09388,113.19728 c 12.53877,0.3483 35.17823,-12.53878 35.17823,-12.53878 -9.40408,1.7415 -10.44898,0.3483 -10.44898,0.3483 l -5.92109,18.80817"
     id="path2779" />
  <path
     style="fill:none;stroke:#000000;stroke-width:1px;stroke-linecap:butt;stroke-linejoin:miter;stroke-opacity:1"
     d="m 167.28435,133.39864 c 23.68436,-11.49388 22.63946,-12.53878 22.63946,-12.53878 l -19.85306,14.28028"
     id="path2781" />
  <path
     style="fill:none;stroke:#000000;stroke-width:1px;stroke-linecap:butt;stroke-linejoin:miter;stroke-opacity:1"
     d="m 128.62313,165.44218 6.96599,4.17959 c 0,0 56.42449,-27.86395 59.55918,-26.12245 3.13469,1.7415 -11.14558,-1.7415 -11.14558,-1.7415 1.0449,7.31429 -4.87619,19.85306 -20.54966,37.61633 -6.96599,7.31429 -26.47075,32.04354 -42.84082,31.34694"
     id="path2791" />
  <path
     style="fill:none;stroke:#000000;stroke-width:1px;stroke-linecap:butt;stroke-linejoin:miter;stroke-opacity:1"
     d="m 183.30612,171.01497 47.71701,46.32381"
     id="path2793" />
</svg>
